<svg xmlns="http://www.w3.org/2000/svg" width="100" height="100" viewBox="0 0 100 100" id="map"><g><path d="M90.7 25.5l-20-7.4c.4.2-.6-.4-1.4 0L50 25.2l-19.2-7.1c.4.2-.6-.4-1.4 0l-20 7.4c-.8.3-1.3 1-1.3 1.9V80c0 3.5 4.4 1.2 2.7 1.9L30 74.8l19.2 7.1c.9.3 1.9-.2 1.5 0L70 74.8l19.3 7.1c1.3.5 2.7-.4 2.7-1.9V27.4c0-.8-.5-1.6-1.3-1.9zM28 71.3L12 77V28.7l16-5.8v48.4zM48 77l-16-5.8V22.9l16 5.8V77zm20-5.7L52 77V28.7l16-5.8v48.4zM88 77l-16-5.8V22.9l16 5.8V77z"></path></g><g><path fill="#00F" d="M1364-370v1684H-420V-370h1784m8-8H-428v1700h1800V-378z"></path></g></svg>